<svg width="24" height="24" viewBox="0 0 24 24" fill="none" xmlns="http://www.w3.org/2000/svg">
<path d="M21.5214 15.9294C21.6114 15.7188 21.6141 15.4811 21.5288 15.2686C21.4436 15.0561 21.2774 14.8862 21.0668 14.7962C20.8563 14.7062 20.6186 14.7035 20.4061 14.7888C20.1936 14.874 20.0236 15.0402 19.9336 15.2507C19.1741 17.0204 17.8442 18.485 16.1558 19.4112C14.4673 20.3374 12.5175 20.6719 10.6169 20.3613C8.71635 20.0508 6.97437 19.1131 5.66852 17.6977C4.36266 16.2823 3.56807 14.4706 3.41133 12.5512C3.25458 10.6318 3.74471 8.71518 4.80363 7.10666C5.86254 5.49814 7.42931 4.29027 9.25433 3.6755C11.0794 3.06073 13.0576 3.07442 14.874 3.71439C16.6903 4.35436 18.2402 5.5838 19.2767 7.20682C19.3999 7.39961 19.5945 7.53559 19.8179 7.58485C20.0413 7.6341 20.2751 7.59261 20.4679 7.46948C20.6607 7.34636 20.7967 7.15169 20.8459 6.92831C20.8952 6.70493 20.8537 6.47113 20.7305 6.27834C19.4865 4.3308 17.6264 2.85564 15.4467 2.08788C13.267 1.32012 10.8931 1.30393 8.7031 2.0419C6.51313 2.77988 4.63313 4.22955 3.36265 6.15995C2.09216 8.09035 1.50428 10.3904 1.69266 12.6937C1.88104 14.997 2.83485 17.1709 4.40213 18.8693C5.9694 20.5676 8.05997 21.6925 10.3407 22.0648C12.6215 22.4371 14.9613 22.0354 16.9873 20.9237C19.0133 19.8119 20.6089 18.0541 21.52 15.9303" fill="#515151"/>
<path d="M16.3556 6.91443C16.2407 6.9117 16.1265 6.93196 16.0195 6.97401C15.9126 7.01606 15.8151 7.07905 15.7329 7.15929C15.6506 7.23953 15.5852 7.3354 15.5405 7.44127C15.4958 7.54714 15.4728 7.66087 15.4726 7.77578C15.4725 7.89069 15.4954 8.00447 15.5398 8.11043C15.5843 8.21639 15.6495 8.3124 15.7316 8.39281C15.8137 8.47323 15.911 8.53643 16.0178 8.57871C16.1247 8.62098 16.2389 8.64148 16.3538 8.63899H21.1431C21.258 8.64172 21.3723 8.62146 21.4792 8.57941C21.5861 8.53737 21.6836 8.47437 21.7659 8.39413C21.8481 8.31389 21.9135 8.21802 21.9582 8.11215C22.0029 8.00629 22.026 7.89255 22.0261 7.77764C22.0262 7.66273 22.0034 7.54895 21.9589 7.44299C21.9144 7.33703 21.8493 7.24102 21.7672 7.16061C21.6851 7.08019 21.5878 7.01699 21.4809 6.97472C21.374 6.93244 21.2598 6.91195 21.1449 6.91443L16.3556 6.91443Z" fill="#515151"/>
<path d="M22.0056 3.13964C21.9661 2.91858 21.8419 2.72165 21.6594 2.59073C21.4769 2.45981 21.2506 2.40522 21.0285 2.43856C20.8064 2.4719 20.6061 2.59054 20.4702 2.76927C20.3342 2.948 20.2733 3.17272 20.3004 3.39565L20.298 7.91105C20.3148 8.02317 20.3535 8.13089 20.4119 8.22806C20.4703 8.32523 20.5473 8.40994 20.6384 8.47736C20.7296 8.54478 20.8331 8.59359 20.9431 8.621C21.0531 8.64841 21.1674 8.65388 21.2795 8.63711C21.3917 8.62033 21.4994 8.58164 21.5966 8.52323C21.6937 8.46483 21.7784 8.38785 21.8459 8.29671C21.9133 8.20556 21.9621 8.10204 21.9895 7.99203C22.0169 7.88202 22.0224 7.76769 22.0056 7.65557V3.13964Z" fill="#515151"/>
<path d="M8.98462 13.9492L8.59644 12.6748H6.64453L6.25635 13.9492H5.0332L6.92285 8.57324H8.31079L10.2078 13.9492H8.98462ZM8.32544 11.7227C7.96655 10.5679 7.76392 9.91479 7.71753 9.76343C7.67358 9.61206 7.64185 9.49243 7.62231 9.40454C7.54175 9.71704 7.31104 10.4897 6.93018 11.7227H8.32544ZM14.3606 9.85498V10.4226L13.7197 10.5874C13.8369 10.7705 13.8955 10.9756 13.8955 11.2026C13.8955 11.6421 13.7417 11.9851 13.4341 12.2317C13.1289 12.4758 12.7041 12.5979 12.1597 12.5979L11.9583 12.5869L11.7935 12.5686C11.6787 12.6565 11.6213 12.7542 11.6213 12.8616C11.6213 13.0227 11.8264 13.1033 12.2366 13.1033H12.9324C13.3816 13.1033 13.7234 13.1997 13.9578 13.3926C14.1946 13.5854 14.313 13.8687 14.313 14.2422C14.313 14.7207 14.1128 15.0918 13.7124 15.3555C13.3145 15.6191 12.7419 15.751 11.9949 15.751C11.4236 15.751 10.9866 15.6509 10.6838 15.4507C10.3835 15.2529 10.2334 14.9746 10.2334 14.6157C10.2334 14.3691 10.3103 14.1628 10.4641 13.9968C10.6179 13.8308 10.8438 13.7124 11.1416 13.6416C11.0269 13.5928 10.9268 13.5134 10.8413 13.4036C10.7559 13.2913 10.7131 13.1729 10.7131 13.0483C10.7131 12.8921 10.7583 12.7627 10.8486 12.6602C10.939 12.5552 11.0696 12.4526 11.2405 12.3525C11.0256 12.2598 10.8547 12.1108 10.7278 11.9058C10.6033 11.7007 10.541 11.459 10.541 11.1807C10.541 10.7339 10.6863 10.3884 10.9768 10.1443C11.2673 9.90015 11.6824 9.77808 12.2219 9.77808C12.3367 9.77808 12.4722 9.78906 12.6284 9.81104C12.7871 9.83057 12.8884 9.84521 12.9324 9.85498H14.3606ZM11.2002 14.5278C11.2002 14.6816 11.2734 14.8025 11.4199 14.8904C11.5688 14.9783 11.7764 15.0222 12.0425 15.0222C12.4429 15.0222 12.7566 14.9673 12.9836 14.8574C13.2107 14.7476 13.3242 14.5974 13.3242 14.407C13.3242 14.2532 13.2571 14.147 13.1228 14.0884C12.9885 14.0298 12.781 14.0005 12.5002 14.0005H11.9216C11.7166 14.0005 11.5444 14.0481 11.4053 14.1433C11.2686 14.241 11.2002 14.3691 11.2002 14.5278ZM11.6067 11.1953C11.6067 11.4175 11.6567 11.5933 11.7568 11.7227C11.8594 11.8521 12.0144 11.9167 12.2219 11.9167C12.4319 11.9167 12.5857 11.8521 12.6833 11.7227C12.781 11.5933 12.8298 11.4175 12.8298 11.1953C12.8298 10.7021 12.6272 10.4556 12.2219 10.4556C11.8118 10.4556 11.6067 10.7021 11.6067 11.1953ZM16.7336 10.5728C16.4968 10.5728 16.3113 10.6484 16.177 10.7998C16.0427 10.9487 15.9658 11.1611 15.9463 11.437H17.5137C17.5088 11.1611 17.4368 10.9487 17.2976 10.7998C17.1584 10.6484 16.9705 10.5728 16.7336 10.5728ZM16.8911 14.0225C16.2319 14.0225 15.7168 13.8406 15.3457 13.4768C14.9746 13.113 14.7891 12.5979 14.7891 11.9314C14.7891 11.2454 14.96 10.7156 15.3018 10.342C15.646 9.96606 16.1208 9.77808 16.7263 9.77808C17.3049 9.77808 17.7554 9.94287 18.0776 10.2725C18.3999 10.6021 18.561 11.0574 18.561 11.6384V12.1804H15.9207C15.9329 12.4978 16.0269 12.7456 16.2026 12.9238C16.3784 13.1021 16.625 13.1912 16.9424 13.1912C17.189 13.1912 17.4221 13.1655 17.6418 13.1143C17.8616 13.063 18.0911 12.9812 18.3303 12.8689V13.7332C18.135 13.8308 17.9263 13.9028 17.7041 13.9492C17.4819 13.998 17.2109 14.0225 16.8911 14.0225Z" fill="#515151"/>
</svg>
