<svg width="67" height="58" viewBox="0 0 67 58" fill="none" xmlns="http://www.w3.org/2000/svg">
<path d="M21.6854 23.8657C21.6854 27.8473 18.4577 31.0751 14.476 31.0751C10.4944 31.0751 7.2666 27.8473 7.2666 23.8657C7.2666 19.884 10.4944 16.6562 14.476 16.6562C18.4577 16.6562 21.6854 19.884 21.6854 23.8657Z" fill="#FC1D9C"/>
<path d="M31.5569 12.2584C31.5569 18.2865 26.6702 23.1731 20.6422 23.1731C14.6142 23.1731 9.72754 18.2865 9.72754 12.2584C9.72754 6.23042 14.6142 1.34375 20.6422 1.34375C26.6702 1.34375 31.5569 6.23042 31.5569 12.2584Z" fill="#FC1D9C"/>
<path d="M65.6308 15.8657C65.6308 22.2291 60.4723 27.3877 54.1089 27.3877C47.7455 27.3877 42.5869 22.2291 42.5869 15.8657C42.5869 9.50231 47.7455 4.34375 54.1089 4.34375C60.4723 4.34375 65.6308 9.50231 65.6308 15.8657Z" fill="#FC1D9C"/>
<path d="M52.3944 39.7528L46.0791 33.4375L39.7638 39.7528L46.0791 46.0681L52.3944 39.7528Z" fill="#CC05A3"/>
<path d="M58.3774 30.7585C58.3774 34.7479 55.1434 37.9819 51.154 37.9819C47.1647 37.9819 43.9307 34.7479 43.9307 30.7585C43.9307 26.7692 47.1647 23.5352 51.154 23.5352C55.1434 23.5352 58.3774 26.7692 58.3774 30.7585Z" fill="#CC05A3"/>
<path d="M21.677 33.17C21.677 36.6704 18.8393 39.508 15.339 39.508C11.8386 39.508 9.00098 36.6704 9.00098 33.17C9.00098 29.6696 11.8386 26.832 15.339 26.832C18.8393 26.832 21.677 29.6696 21.677 33.17Z" fill="#CC05A3"/>
<path d="M27.1043 3.37959L21.513 8.97154C15.9929 14.4916 15.7254 23.2595 20.7107 29.0876L11.6343 38.1641L5.31257 31.8529C3.90486 30.434 2.77397 28.8408 1.94112 27.1757C-1.58462 20.1861 -0.31002 11.4076 5.80614 5.75384C11.6861 0.254951 20.3614 -0.392361 27.1043 3.37959Z" fill="#7B7B7B"/>
<path d="M63.2177 8.07885C67.4526 14.0407 67.6481 21.9969 63.7831 28.1231C63.0939 29.2746 62.2305 30.3642 61.2333 31.3614L46.1338 46.4609L46.1025 46.4303C52.0338 40.4991 52.1574 30.9396 46.4524 24.8547L63.2177 8.07885Z" fill="#7B7B7B"/>
<path d="M46.4533 24.858C52.1584 30.9429 52.0347 40.5024 46.1035 46.4336L46.1347 46.4642L36.4415 56.1578C35.4956 57.1135 34.221 57.5967 32.9464 57.6172C31.6719 57.5967 30.3973 57.1135 29.4519 56.1578L10.9697 37.6758L20.0462 28.5993C20.3036 28.8973 20.5704 29.196 20.8484 29.4734C26.6453 35.2709 36.0404 35.2709 41.838 29.4734L46.4533 24.858Z" fill="#7B7B7B"/>
<path d="M63.2142 8.08049L46.4489 24.8563C46.3358 24.7326 46.2228 24.6096 46.0991 24.4865C40.0348 18.4315 30.2079 18.4315 24.1536 24.4865L20.0418 28.5977C15.0565 22.7695 15.3239 14.0017 20.844 8.4816L26.4353 2.88964C27.9261 3.72249 29.3238 4.77091 30.5778 6.0349L32.9421 8.38912L35.3063 6.0349C42.2241 -0.93413 53.5723 -1.44773 60.7475 5.2639C61.6822 6.13798 62.5051 7.0733 63.2142 8.08049Z" fill="#7B7B7B"/>
</svg>
