<svg width="500" height="500" viewBox="0 0 85 69" fill="none" xmlns="http://www.w3.org/2000/svg">
<path d="M30.1922 28.4301C30.1922 32.7839 26.6628 36.3133 22.309 36.3133C17.9552 36.3133 14.4258 32.7839 14.4258 28.4301C14.4258 24.0763 17.9552 20.5469 22.309 20.5469C26.6628 20.5469 30.1922 24.0763 30.1922 28.4301Z" fill="#FC1D9C"/>
<path d="M40.9868 15.759C40.9868 22.3504 35.6434 27.6938 29.052 27.6938C22.4606 27.6938 17.1172 22.3504 17.1172 15.759C17.1172 9.16761 22.4606 3.82422 29.052 3.82422C35.6434 3.82422 40.9868 9.16761 40.9868 15.759Z" fill="#FC1D9C"/>
<path d="M78.2465 19.6848C78.2465 26.6429 72.6058 32.2836 65.6476 32.2836C58.6895 32.2836 53.0488 26.6429 53.0488 19.6848C53.0488 12.7266 58.6895 7.08594 65.6476 7.08594C72.6058 7.08594 78.2465 12.7266 78.2465 19.6848Z" fill="#FC1D9C"/>
<path d="M63.7649 45.7844L56.8594 38.8789L49.9539 45.7844L56.8594 52.6899L63.7649 45.7844Z" fill="#CC05A3"/>
<path d="M70.3145 35.9727C70.3145 40.3349 66.7782 43.8711 62.416 43.8711C58.0538 43.8711 54.5176 40.3349 54.5176 35.9727C54.5176 31.6105 58.0538 28.0742 62.416 28.0742C66.7782 28.0742 70.3145 31.6105 70.3145 35.9727Z" fill="#CC05A3"/>
<path d="M30.1966 38.5944C30.1966 42.4219 27.0938 45.5248 23.2663 45.5248C19.4388 45.5248 16.3359 42.4219 16.3359 38.5944C16.3359 34.7669 19.4388 31.6641 23.2663 31.6641C27.0938 31.6641 30.1966 34.7669 30.1966 38.5944Z" fill="#CC05A3"/>
<path d="M35.3923 5.49577L29.2784 11.6104C23.2424 17.6464 22.95 27.2336 28.4012 33.6065L18.4764 43.5312L11.5639 36.6303C10.0246 35.0788 8.78802 33.3366 7.87734 31.5159C4.02207 23.873 5.4158 14.2741 12.1036 8.09193C18.5331 2.07911 28.0192 1.3713 35.3923 5.49577Z" fill="url(#paint0_linear_1642_134322)"/>
<path d="M75.6073 11.1674C80.238 17.6864 80.4518 26.3862 76.2256 33.085C75.472 34.3441 74.5278 35.5356 73.4375 36.6259L56.9267 53.1367L56.8926 53.1032C63.3781 46.6177 63.5133 36.1648 57.2751 29.5111L75.6073 11.1674Z" fill="url(#paint1_linear_1642_134322)"/>
<path d="M57.2804 29.5033C63.5186 36.1569 63.3834 46.6098 56.8979 53.0954L56.932 53.1289L46.3329 63.7285C45.2986 64.7735 43.9049 65.3018 42.5112 65.3242C41.1174 65.3018 39.7237 64.7735 38.69 63.7285L18.4805 43.5191L28.4052 33.5943C28.6867 33.9202 28.9784 34.2467 29.2824 34.5501C35.6211 40.8894 45.8943 40.8894 52.2337 34.5501L57.2804 29.5033Z" fill="#CC05A3"/>
<path d="M75.6072 11.159L57.275 29.5028C57.1513 29.3675 57.0277 29.2329 56.8925 29.0983C50.2614 22.4775 39.5161 22.4775 32.8959 29.0983L28.3998 33.5938C22.9486 27.2209 23.241 17.6336 29.277 11.5976L35.3909 5.48304C37.021 6.39372 38.5493 7.54012 39.9205 8.92225L42.5057 11.4965L45.0909 8.92225C52.6553 1.30189 65.0641 0.74028 72.9099 8.0792C73.932 9.03496 74.8317 10.0577 75.6072 11.159Z" fill="url(#paint2_linear_1642_134322)"/>
<defs>
<linearGradient id="paint0_linear_1642_134322" x1="5.75586" y1="43.5312" x2="5.75586" y2="2.89189" gradientUnits="userSpaceOnUse">
<stop stop-color="#7117EA"/>
<stop offset="1" stop-color="#EA6060"/>
</linearGradient>
<linearGradient id="paint1_linear_1642_134322" x1="56.8926" y1="53.1367" x2="56.8926" y2="11.1449" gradientUnits="userSpaceOnUse">
<stop stop-color="#7117EA"/>
<stop offset="1" stop-color="#EA6060"/>
</linearGradient>
<linearGradient id="paint2_linear_1642_134322" x1="24.5201" y1="33.5938" x2="24.5201" y2="2.87272" gradientUnits="userSpaceOnUse">
<stop stop-color="#622774"/>
<stop offset="1" stop-color="#C53364"/>
</linearGradient>
</defs>
</svg>
