<svg width="354" height="72" viewBox="0 0 354 72" fill="none" xmlns="http://www.w3.org/2000/svg">
<path d="M72 24H84C87.3137 24 90 26.6863 90 30C90 33.3137 87.3137 36 84 36H72V24Z" fill="#FBF4D9"/>
<path d="M72 36H87C90.3137 36 93 38.6863 93 42C93 45.3137 90.3137 48 87 48H72V36Z" fill="#FBF4D9"/>
<path d="M108 36C108 50.9117 95.9117 63 81 63C66.0883 63 54 50.9117 54 36C54 21.0883 66.0883 9 81 9C95.9117 9 108 21.0883 108 36Z" fill="#FBF4D9"/>
<path d="M72 36H84C87.3137 36 90 33.3137 90 30C90 26.6863 87.3137 24 84 24H72V36ZM72 36H87C90.3137 36 93 38.6863 93 42C93 45.3137 90.3137 48 87 48H72V36ZM108 36C108 50.9117 95.9117 63 81 63C66.0883 63 54 50.9117 54 36C54 21.0883 66.0883 9 81 9C95.9117 9 108 21.0883 108 36Z" stroke="#E6B300" stroke-width="6" stroke-linecap="round" stroke-linejoin="round"/>
<path d="M104 24H116C119.314 24 122 26.6863 122 30C122 33.3137 119.314 36 116 36H104V24Z" fill="#FBF4D9"/>
<path d="M104 36H119C122.314 36 125 38.6863 125 42C125 45.3137 122.314 48 119 48H104V36Z" fill="#FBF4D9"/>
<path d="M140 36C140 50.9117 127.912 63 113 63C98.0883 63 86 50.9117 86 36C86 21.0883 98.0883 9 113 9C127.912 9 140 21.0883 140 36Z" fill="#FBF4D9"/>
<path d="M104 36H116C119.314 36 122 33.3137 122 30C122 26.6863 119.314 24 116 24H104V36ZM104 36H119C122.314 36 125 38.6863 125 42C125 45.3137 122.314 48 119 48H104V36ZM140 36C140 50.9117 127.912 63 113 63C98.0883 63 86 50.9117 86 36C86 21.0883 98.0883 9 113 9C127.912 9 140 21.0883 140 36Z" stroke="#E6B300" stroke-width="6" stroke-linecap="round" stroke-linejoin="round"/>
<path d="M136 24H148C151.314 24 154 26.6863 154 30C154 33.3137 151.314 36 148 36H136V24Z" fill="#FBF4D9"/>
<path d="M136 36H151C154.314 36 157 38.6863 157 42C157 45.3137 154.314 48 151 48H136V36Z" fill="#FBF4D9"/>
<path d="M172 36C172 50.9117 159.912 63 145 63C130.088 63 118 50.9117 118 36C118 21.0883 130.088 9 145 9C159.912 9 172 21.0883 172 36Z" fill="#FBF4D9"/>
<path d="M136 36H148C151.314 36 154 33.3137 154 30C154 26.6863 151.314 24 148 24H136V36ZM136 36H151C154.314 36 157 38.6863 157 42C157 45.3137 154.314 48 151 48H136V36ZM172 36C172 50.9117 159.912 63 145 63C130.088 63 118 50.9117 118 36C118 21.0883 130.088 9 145 9C159.912 9 172 21.0883 172 36Z" stroke="#E6B300" stroke-width="6" stroke-linecap="round" stroke-linejoin="round"/>
<path d="M168 24H180C183.314 24 186 26.6863 186 30C186 33.3137 183.314 36 180 36H168V24Z" fill="#FBF4D9"/>
<path d="M168 36H183C186.314 36 189 38.6863 189 42C189 45.3137 186.314 48 183 48H168V36Z" fill="#FBF4D9"/>
<path d="M204 36C204 50.9117 191.912 63 177 63C162.088 63 150 50.9117 150 36C150 21.0883 162.088 9 177 9C191.912 9 204 21.0883 204 36Z" fill="#FBF4D9"/>
<path d="M168 36H180C183.314 36 186 33.3137 186 30C186 26.6863 183.314 24 180 24H168V36ZM168 36H183C186.314 36 189 38.6863 189 42C189 45.3137 186.314 48 183 48H168V36ZM204 36C204 50.9117 191.912 63 177 63C162.088 63 150 50.9117 150 36C150 21.0883 162.088 9 177 9C191.912 9 204 21.0883 204 36Z" stroke="#E6B300" stroke-width="6" stroke-linecap="round" stroke-linejoin="round"/>
<path d="M200 24H212C215.314 24 218 26.6863 218 30C218 33.3137 215.314 36 212 36H200V24Z" fill="#FBF4D9"/>
<path d="M200 36H215C218.314 36 221 38.6863 221 42C221 45.3137 218.314 48 215 48H200V36Z" fill="#FBF4D9"/>
<path d="M236 36C236 50.9117 223.912 63 209 63C194.088 63 182 50.9117 182 36C182 21.0883 194.088 9 209 9C223.912 9 236 21.0883 236 36Z" fill="#FBF4D9"/>
<path d="M200 36H212C215.314 36 218 33.3137 218 30C218 26.6863 215.314 24 212 24H200V36ZM200 36H215C218.314 36 221 38.6863 221 42C221 45.3137 218.314 48 215 48H200V36ZM236 36C236 50.9117 223.912 63 209 63C194.088 63 182 50.9117 182 36C182 21.0883 194.088 9 209 9C223.912 9 236 21.0883 236 36Z" stroke="#E6B300" stroke-width="6" stroke-linecap="round" stroke-linejoin="round"/>
<path d="M232 24H244C247.314 24 250 26.6863 250 30C250 33.3137 247.314 36 244 36H232V24Z" fill="#FBF4D9"/>
<path d="M232 36H247C250.314 36 253 38.6863 253 42C253 45.3137 250.314 48 247 48H232V36Z" fill="#FBF4D9"/>
<path d="M268 36C268 50.9117 255.912 63 241 63C226.088 63 214 50.9117 214 36C214 21.0883 226.088 9 241 9C255.912 9 268 21.0883 268 36Z" fill="#FBF4D9"/>
<path d="M232 36H244C247.314 36 250 33.3137 250 30C250 26.6863 247.314 24 244 24H232V36ZM232 36H247C250.314 36 253 38.6863 253 42C253 45.3137 250.314 48 247 48H232V36ZM268 36C268 50.9117 255.912 63 241 63C226.088 63 214 50.9117 214 36C214 21.0883 226.088 9 241 9C255.912 9 268 21.0883 268 36Z" stroke="#E6B300" stroke-width="6" stroke-linecap="round" stroke-linejoin="round"/>
<path d="M264 24H276C279.314 24 282 26.6863 282 30C282 33.3137 279.314 36 276 36H264V24Z" fill="#FBF4D9"/>
<path d="M264 36H279C282.314 36 285 38.6863 285 42C285 45.3137 282.314 48 279 48H264V36Z" fill="#FBF4D9"/>
<path d="M300 36C300 50.9117 287.912 63 273 63C258.088 63 246 50.9117 246 36C246 21.0883 258.088 9 273 9C287.912 9 300 21.0883 300 36Z" fill="#FBF4D9"/>
<path d="M264 36H276C279.314 36 282 33.3137 282 30C282 26.6863 279.314 24 276 24H264V36ZM264 36H279C282.314 36 285 38.6863 285 42C285 45.3137 282.314 48 279 48H264V36ZM300 36C300 50.9117 287.912 63 273 63C258.088 63 246 50.9117 246 36C246 21.0883 258.088 9 273 9C287.912 9 300 21.0883 300 36Z" stroke="#E6B300" stroke-width="6" stroke-linecap="round" stroke-linejoin="round"/>
</svg>
