<svg width="354" height="200" viewBox="0 0 354 200" fill="none" xmlns="http://www.w3.org/2000/svg">
<path d="M72 24H84C87.3137 24 90 26.6863 90 30C90 33.3137 87.3137 36 84 36H72V24Z" fill="#FBF4D9"/>
<path d="M72 36H87C90.3137 36 93 38.6863 93 42C93 45.3137 90.3137 48 87 48H72V36Z" fill="#FBF4D9"/>
<path d="M108 36C108 50.9117 95.9117 63 81 63C66.0883 63 54 50.9117 54 36C54 21.0883 66.0883 9 81 9C95.9117 9 108 21.0883 108 36Z" fill="#FBF4D9"/>
<path d="M72 36H84C87.3137 36 90 33.3137 90 30C90 26.6863 87.3137 24 84 24H72V36ZM72 36H87C90.3137 36 93 38.6863 93 42C93 45.3137 90.3137 48 87 48H72V36ZM108 36C108 50.9117 95.9117 63 81 63C66.0883 63 54 50.9117 54 36C54 21.0883 66.0883 9 81 9C95.9117 9 108 21.0883 108 36Z" stroke="#E6B300" stroke-width="6" stroke-linecap="round" stroke-linejoin="round"/>
<path d="M104 24H116C119.314 24 122 26.6863 122 30C122 33.3137 119.314 36 116 36H104V24Z" fill="#FBF4D9"/>
<path d="M104 36H119C122.314 36 125 38.6863 125 42C125 45.3137 122.314 48 119 48H104V36Z" fill="#FBF4D9"/>
<path d="M140 36C140 50.9117 127.912 63 113 63C98.0883 63 86 50.9117 86 36C86 21.0883 98.0883 9 113 9C127.912 9 140 21.0883 140 36Z" fill="#FBF4D9"/>
<path d="M104 36H116C119.314 36 122 33.3137 122 30C122 26.6863 119.314 24 116 24H104V36ZM104 36H119C122.314 36 125 38.6863 125 42C125 45.3137 122.314 48 119 48H104V36ZM140 36C140 50.9117 127.912 63 113 63C98.0883 63 86 50.9117 86 36C86 21.0883 98.0883 9 113 9C127.912 9 140 21.0883 140 36Z" stroke="#E6B300" stroke-width="6" stroke-linecap="round" stroke-linejoin="round"/>
<path d="M136 24H148C151.314 24 154 26.6863 154 30C154 33.3137 151.314 36 148 36H136V24Z" fill="#FBF4D9"/>
<path d="M136 36H151C154.314 36 157 38.6863 157 42C157 45.3137 154.314 48 151 48H136V36Z" fill="#FBF4D9"/>
<path d="M172 36C172 50.9117 159.912 63 145 63C130.088 63 118 50.9117 118 36C118 21.0883 130.088 9 145 9C159.912 9 172 21.0883 172 36Z" fill="#FBF4D9"/>
<path d="M136 36H148C151.314 36 154 33.3137 154 30C154 26.6863 151.314 24 148 24H136V36ZM136 36H151C154.314 36 157 38.6863 157 42C157 45.3137 154.314 48 151 48H136V36ZM172 36C172 50.9117 159.912 63 145 63C130.088 63 118 50.9117 118 36C118 21.0883 130.088 9 145 9C159.912 9 172 21.0883 172 36Z" stroke="#E6B300" stroke-width="6" stroke-linecap="round" stroke-linejoin="round"/>
<path d="M168 24H180C183.314 24 186 26.6863 186 30C186 33.3137 183.314 36 180 36H168V24Z" fill="#FBF4D9"/>
<path d="M168 36H183C186.314 36 189 38.6863 189 42C189 45.3137 186.314 48 183 48H168V36Z" fill="#FBF4D9"/>
<path d="M204 36C204 50.9117 191.912 63 177 63C162.088 63 150 50.9117 150 36C150 21.0883 162.088 9 177 9C191.912 9 204 21.0883 204 36Z" fill="#FBF4D9"/>
<path d="M168 36H180C183.314 36 186 33.3137 186 30C186 26.6863 183.314 24 180 24H168V36ZM168 36H183C186.314 36 189 38.6863 189 42C189 45.3137 186.314 48 183 48H168V36ZM204 36C204 50.9117 191.912 63 177 63C162.088 63 150 50.9117 150 36C150 21.0883 162.088 9 177 9C191.912 9 204 21.0883 204 36Z" stroke="#E6B300" stroke-width="6" stroke-linecap="round" stroke-linejoin="round"/>
<path d="M200 24H212C215.314 24 218 26.6863 218 30C218 33.3137 215.314 36 212 36H200V24Z" fill="#FBF4D9"/>
<path d="M200 36H215C218.314 36 221 38.6863 221 42C221 45.3137 218.314 48 215 48H200V36Z" fill="#FBF4D9"/>
<path d="M236 36C236 50.9117 223.912 63 209 63C194.088 63 182 50.9117 182 36C182 21.0883 194.088 9 209 9C223.912 9 236 21.0883 236 36Z" fill="#FBF4D9"/>
<path d="M200 36H212C215.314 36 218 33.3137 218 30C218 26.6863 215.314 24 212 24H200V36ZM200 36H215C218.314 36 221 38.6863 221 42C221 45.3137 218.314 48 215 48H200V36ZM236 36C236 50.9117 223.912 63 209 63C194.088 63 182 50.9117 182 36C182 21.0883 194.088 9 209 9C223.912 9 236 21.0883 236 36Z" stroke="#E6B300" stroke-width="6" stroke-linecap="round" stroke-linejoin="round"/>
<path d="M232 24H244C247.314 24 250 26.6863 250 30C250 33.3137 247.314 36 244 36H232V24Z" fill="#FBF4D9"/>
<path d="M232 36H247C250.314 36 253 38.6863 253 42C253 45.3137 250.314 48 247 48H232V36Z" fill="#FBF4D9"/>
<path d="M268 36C268 50.9117 255.912 63 241 63C226.088 63 214 50.9117 214 36C214 21.0883 226.088 9 241 9C255.912 9 268 21.0883 268 36Z" fill="#FBF4D9"/>
<path d="M232 36H244C247.314 36 250 33.3137 250 30C250 26.6863 247.314 24 244 24H232V36ZM232 36H247C250.314 36 253 38.6863 253 42C253 45.3137 250.314 48 247 48H232V36ZM268 36C268 50.9117 255.912 63 241 63C226.088 63 214 50.9117 214 36C214 21.0883 226.088 9 241 9C255.912 9 268 21.0883 268 36Z" stroke="#E6B300" stroke-width="6" stroke-linecap="round" stroke-linejoin="round"/>
<path d="M264 24H276C279.314 24 282 26.6863 282 30C282 33.3137 279.314 36 276 36H264V24Z" fill="#FBF4D9"/>
<path d="M264 36H279C282.314 36 285 38.6863 285 42C285 45.3137 282.314 48 279 48H264V36Z" fill="#FBF4D9"/>
<path d="M300 36C300 50.9117 287.912 63 273 63C258.088 63 246 50.9117 246 36C246 21.0883 258.088 9 273 9C287.912 9 300 21.0883 300 36Z" fill="#FBF4D9"/>
<path d="M264 36H276C279.314 36 282 33.3137 282 30C282 26.6863 279.314 24 276 24H264V36ZM264 36H279C282.314 36 285 38.6863 285 42C285 45.3137 282.314 48 279 48H264V36ZM300 36C300 50.9117 287.912 63 273 63C258.088 63 246 50.9117 246 36C246 21.0883 258.088 9 273 9C287.912 9 300 21.0883 300 36Z" stroke="#E6B300" stroke-width="6" stroke-linecap="round" stroke-linejoin="round"/>
<path d="M72 56H84C87.3137 56 90 58.6863 90 62C90 65.3137 87.3137 68 84 68H72V56Z" fill="#FBF4D9"/>
<path d="M72 68H87C90.3137 68 93 70.6863 93 74C93 77.3137 90.3137 80 87 80H72V68Z" fill="#FBF4D9"/>
<path d="M108 68C108 82.9117 95.9117 95 81 95C66.0883 95 54 82.9117 54 68C54 53.0883 66.0883 41 81 41C95.9117 41 108 53.0883 108 68Z" fill="#FBF4D9"/>
<path d="M72 68H84C87.3137 68 90 65.3137 90 62C90 58.6863 87.3137 56 84 56H72V68ZM72 68H87C90.3137 68 93 70.6863 93 74C93 77.3137 90.3137 80 87 80H72V68ZM108 68C108 82.9117 95.9117 95 81 95C66.0883 95 54 82.9117 54 68C54 53.0883 66.0883 41 81 41C95.9117 41 108 53.0883 108 68Z" stroke="#E6B300" stroke-width="6" stroke-linecap="round" stroke-linejoin="round"/>
<path d="M104 56H116C119.314 56 122 58.6863 122 62C122 65.3137 119.314 68 116 68H104V56Z" fill="#FBF4D9"/>
<path d="M104 68H119C122.314 68 125 70.6863 125 74C125 77.3137 122.314 80 119 80H104V68Z" fill="#FBF4D9"/>
<path d="M140 68C140 82.9117 127.912 95 113 95C98.0883 95 86 82.9117 86 68C86 53.0883 98.0883 41 113 41C127.912 41 140 53.0883 140 68Z" fill="#FBF4D9"/>
<path d="M104 68H116C119.314 68 122 65.3137 122 62C122 58.6863 119.314 56 116 56H104V68ZM104 68H119C122.314 68 125 70.6863 125 74C125 77.3137 122.314 80 119 80H104V68ZM140 68C140 82.9117 127.912 95 113 95C98.0883 95 86 82.9117 86 68C86 53.0883 98.0883 41 113 41C127.912 41 140 53.0883 140 68Z" stroke="#E6B300" stroke-width="6" stroke-linecap="round" stroke-linejoin="round"/>
<path d="M136 56H148C151.314 56 154 58.6863 154 62C154 65.3137 151.314 68 148 68H136V56Z" fill="#FBF4D9"/>
<path d="M136 68H151C154.314 68 157 70.6863 157 74C157 77.3137 154.314 80 151 80H136V68Z" fill="#FBF4D9"/>
<path d="M172 68C172 82.9117 159.912 95 145 95C130.088 95 118 82.9117 118 68C118 53.0883 130.088 41 145 41C159.912 41 172 53.0883 172 68Z" fill="#FBF4D9"/>
<path d="M136 68H148C151.314 68 154 65.3137 154 62C154 58.6863 151.314 56 148 56H136V68ZM136 68H151C154.314 68 157 70.6863 157 74C157 77.3137 154.314 80 151 80H136V68ZM172 68C172 82.9117 159.912 95 145 95C130.088 95 118 82.9117 118 68C118 53.0883 130.088 41 145 41C159.912 41 172 53.0883 172 68Z" stroke="#E6B300" stroke-width="6" stroke-linecap="round" stroke-linejoin="round"/>
<path d="M168 56H180C183.314 56 186 58.6863 186 62C186 65.3137 183.314 68 180 68H168V56Z" fill="#FBF4D9"/>
<path d="M168 68H183C186.314 68 189 70.6863 189 74C189 77.3137 186.314 80 183 80H168V68Z" fill="#FBF4D9"/>
<path d="M204 68C204 82.9117 191.912 95 177 95C162.088 95 150 82.9117 150 68C150 53.0883 162.088 41 177 41C191.912 41 204 53.0883 204 68Z" fill="#FBF4D9"/>
<path d="M168 68H180C183.314 68 186 65.3137 186 62C186 58.6863 183.314 56 180 56H168V68ZM168 68H183C186.314 68 189 70.6863 189 74C189 77.3137 186.314 80 183 80H168V68ZM204 68C204 82.9117 191.912 95 177 95C162.088 95 150 82.9117 150 68C150 53.0883 162.088 41 177 41C191.912 41 204 53.0883 204 68Z" stroke="#E6B300" stroke-width="6" stroke-linecap="round" stroke-linejoin="round"/>
<path d="M200 56H212C215.314 56 218 58.6863 218 62C218 65.3137 215.314 68 212 68H200V56Z" fill="#FBF4D9"/>
<path d="M200 68H215C218.314 68 221 70.6863 221 74C221 77.3137 218.314 80 215 80H200V68Z" fill="#FBF4D9"/>
<path d="M236 68C236 82.9117 223.912 95 209 95C194.088 95 182 82.9117 182 68C182 53.0883 194.088 41 209 41C223.912 41 236 53.0883 236 68Z" fill="#FBF4D9"/>
<path d="M200 68H212C215.314 68 218 65.3137 218 62C218 58.6863 215.314 56 212 56H200V68ZM200 68H215C218.314 68 221 70.6863 221 74C221 77.3137 218.314 80 215 80H200V68ZM236 68C236 82.9117 223.912 95 209 95C194.088 95 182 82.9117 182 68C182 53.0883 194.088 41 209 41C223.912 41 236 53.0883 236 68Z" stroke="#E6B300" stroke-width="6" stroke-linecap="round" stroke-linejoin="round"/>
<path d="M232 56H244C247.314 56 250 58.6863 250 62C250 65.3137 247.314 68 244 68H232V56Z" fill="#FBF4D9"/>
<path d="M232 68H247C250.314 68 253 70.6863 253 74C253 77.3137 250.314 80 247 80H232V68Z" fill="#FBF4D9"/>
<path d="M268 68C268 82.9117 255.912 95 241 95C226.088 95 214 82.9117 214 68C214 53.0883 226.088 41 241 41C255.912 41 268 53.0883 268 68Z" fill="#FBF4D9"/>
<path d="M232 68H244C247.314 68 250 65.3137 250 62C250 58.6863 247.314 56 244 56H232V68ZM232 68H247C250.314 68 253 70.6863 253 74C253 77.3137 250.314 80 247 80H232V68ZM268 68C268 82.9117 255.912 95 241 95C226.088 95 214 82.9117 214 68C214 53.0883 226.088 41 241 41C255.912 41 268 53.0883 268 68Z" stroke="#E6B300" stroke-width="6" stroke-linecap="round" stroke-linejoin="round"/>
<path d="M264 56H276C279.314 56 282 58.6863 282 62C282 65.3137 279.314 68 276 68H264V56Z" fill="#FBF4D9"/>
<path d="M264 68H279C282.314 68 285 70.6863 285 74C285 77.3137 282.314 80 279 80H264V68Z" fill="#FBF4D9"/>
<path d="M300 68C300 82.9117 287.912 95 273 95C258.088 95 246 82.9117 246 68C246 53.0883 258.088 41 273 41C287.912 41 300 53.0883 300 68Z" fill="#FBF4D9"/>
<path d="M264 68H276C279.314 68 282 65.3137 282 62C282 58.6863 279.314 56 276 56H264V68ZM264 68H279C282.314 68 285 70.6863 285 74C285 77.3137 282.314 80 279 80H264V68ZM300 68C300 82.9117 287.912 95 273 95C258.088 95 246 82.9117 246 68C246 53.0883 258.088 41 273 41C287.912 41 300 53.0883 300 68Z" stroke="#E6B300" stroke-width="6" stroke-linecap="round" stroke-linejoin="round"/>
<path d="M72 88H84C87.3137 88 90 90.6863 90 94C90 97.3137 87.3137 100 84 100H72V88Z" fill="#FBF4D9"/>
<path d="M72 100H87C90.3137 100 93 102.686 93 106C93 109.314 90.3137 112 87 112H72V100Z" fill="#FBF4D9"/>
<path d="M108 100C108 114.912 95.9117 127 81 127C66.0883 127 54 114.912 54 100C54 85.0883 66.0883 73 81 73C95.9117 73 108 85.0883 108 100Z" fill="#FBF4D9"/>
<path d="M72 100H84C87.3137 100 90 97.3137 90 94C90 90.6863 87.3137 88 84 88H72V100ZM72 100H87C90.3137 100 93 102.686 93 106C93 109.314 90.3137 112 87 112H72V100ZM108 100C108 114.912 95.9117 127 81 127C66.0883 127 54 114.912 54 100C54 85.0883 66.0883 73 81 73C95.9117 73 108 85.0883 108 100Z" stroke="#E6B300" stroke-width="6" stroke-linecap="round" stroke-linejoin="round"/>
<path d="M104 88H116C119.314 88 122 90.6863 122 94C122 97.3137 119.314 100 116 100H104V88Z" fill="#FBF4D9"/>
<path d="M104 100H119C122.314 100 125 102.686 125 106C125 109.314 122.314 112 119 112H104V100Z" fill="#FBF4D9"/>
<path d="M140 100C140 114.912 127.912 127 113 127C98.0883 127 86 114.912 86 100C86 85.0883 98.0883 73 113 73C127.912 73 140 85.0883 140 100Z" fill="#FBF4D9"/>
<path d="M104 100H116C119.314 100 122 97.3137 122 94C122 90.6863 119.314 88 116 88H104V100ZM104 100H119C122.314 100 125 102.686 125 106C125 109.314 122.314 112 119 112H104V100ZM140 100C140 114.912 127.912 127 113 127C98.0883 127 86 114.912 86 100C86 85.0883 98.0883 73 113 73C127.912 73 140 85.0883 140 100Z" stroke="#E6B300" stroke-width="6" stroke-linecap="round" stroke-linejoin="round"/>
<path d="M136 88H148C151.314 88 154 90.6863 154 94C154 97.3137 151.314 100 148 100H136V88Z" fill="#FBF4D9"/>
<path d="M136 100H151C154.314 100 157 102.686 157 106C157 109.314 154.314 112 151 112H136V100Z" fill="#FBF4D9"/>
<path d="M172 100C172 114.912 159.912 127 145 127C130.088 127 118 114.912 118 100C118 85.0883 130.088 73 145 73C159.912 73 172 85.0883 172 100Z" fill="#FBF4D9"/>
<path d="M136 100H148C151.314 100 154 97.3137 154 94C154 90.6863 151.314 88 148 88H136V100ZM136 100H151C154.314 100 157 102.686 157 106C157 109.314 154.314 112 151 112H136V100ZM172 100C172 114.912 159.912 127 145 127C130.088 127 118 114.912 118 100C118 85.0883 130.088 73 145 73C159.912 73 172 85.0883 172 100Z" stroke="#E6B300" stroke-width="6" stroke-linecap="round" stroke-linejoin="round"/>
<path d="M168 88H180C183.314 88 186 90.6863 186 94C186 97.3137 183.314 100 180 100H168V88Z" fill="#FBF4D9"/>
<path d="M168 100H183C186.314 100 189 102.686 189 106C189 109.314 186.314 112 183 112H168V100Z" fill="#FBF4D9"/>
<path d="M204 100C204 114.912 191.912 127 177 127C162.088 127 150 114.912 150 100C150 85.0883 162.088 73 177 73C191.912 73 204 85.0883 204 100Z" fill="#FBF4D9"/>
<path d="M168 100H180C183.314 100 186 97.3137 186 94C186 90.6863 183.314 88 180 88H168V100ZM168 100H183C186.314 100 189 102.686 189 106C189 109.314 186.314 112 183 112H168V100ZM204 100C204 114.912 191.912 127 177 127C162.088 127 150 114.912 150 100C150 85.0883 162.088 73 177 73C191.912 73 204 85.0883 204 100Z" stroke="#E6B300" stroke-width="6" stroke-linecap="round" stroke-linejoin="round"/>
<path d="M200 88H212C215.314 88 218 90.6863 218 94C218 97.3137 215.314 100 212 100H200V88Z" fill="#FBF4D9"/>
<path d="M200 100H215C218.314 100 221 102.686 221 106C221 109.314 218.314 112 215 112H200V100Z" fill="#FBF4D9"/>
<path d="M236 100C236 114.912 223.912 127 209 127C194.088 127 182 114.912 182 100C182 85.0883 194.088 73 209 73C223.912 73 236 85.0883 236 100Z" fill="#FBF4D9"/>
<path d="M200 100H212C215.314 100 218 97.3137 218 94C218 90.6863 215.314 88 212 88H200V100ZM200 100H215C218.314 100 221 102.686 221 106C221 109.314 218.314 112 215 112H200V100ZM236 100C236 114.912 223.912 127 209 127C194.088 127 182 114.912 182 100C182 85.0883 194.088 73 209 73C223.912 73 236 85.0883 236 100Z" stroke="#E6B300" stroke-width="6" stroke-linecap="round" stroke-linejoin="round"/>
<path d="M232 88H244C247.314 88 250 90.6863 250 94C250 97.3137 247.314 100 244 100H232V88Z" fill="#FBF4D9"/>
<path d="M232 100H247C250.314 100 253 102.686 253 106C253 109.314 250.314 112 247 112H232V100Z" fill="#FBF4D9"/>
<path d="M268 100C268 114.912 255.912 127 241 127C226.088 127 214 114.912 214 100C214 85.0883 226.088 73 241 73C255.912 73 268 85.0883 268 100Z" fill="#FBF4D9"/>
<path d="M232 100H244C247.314 100 250 97.3137 250 94C250 90.6863 247.314 88 244 88H232V100ZM232 100H247C250.314 100 253 102.686 253 106C253 109.314 250.314 112 247 112H232V100ZM268 100C268 114.912 255.912 127 241 127C226.088 127 214 114.912 214 100C214 85.0883 226.088 73 241 73C255.912 73 268 85.0883 268 100Z" stroke="#E6B300" stroke-width="6" stroke-linecap="round" stroke-linejoin="round"/>
<path d="M264 88H276C279.314 88 282 90.6863 282 94C282 97.3137 279.314 100 276 100H264V88Z" fill="#FBF4D9"/>
<path d="M264 100H279C282.314 100 285 102.686 285 106C285 109.314 282.314 112 279 112H264V100Z" fill="#FBF4D9"/>
<path d="M300 100C300 114.912 287.912 127 273 127C258.088 127 246 114.912 246 100C246 85.0883 258.088 73 273 73C287.912 73 300 85.0883 300 100Z" fill="#FBF4D9"/>
<path d="M264 100H276C279.314 100 282 97.3137 282 94C282 90.6863 279.314 88 276 88H264V100ZM264 100H279C282.314 100 285 102.686 285 106C285 109.314 282.314 112 279 112H264V100ZM300 100C300 114.912 287.912 127 273 127C258.088 127 246 114.912 246 100C246 85.0883 258.088 73 273 73C287.912 73 300 85.0883 300 100Z" stroke="#E6B300" stroke-width="6" stroke-linecap="round" stroke-linejoin="round"/>
<path d="M72 120H84C87.3137 120 90 122.686 90 126C90 129.314 87.3137 132 84 132H72V120Z" fill="#FBF4D9"/>
<path d="M72 132H87C90.3137 132 93 134.686 93 138C93 141.314 90.3137 144 87 144H72V132Z" fill="#FBF4D9"/>
<path d="M108 132C108 146.912 95.9117 159 81 159C66.0883 159 54 146.912 54 132C54 117.088 66.0883 105 81 105C95.9117 105 108 117.088 108 132Z" fill="#FBF4D9"/>
<path d="M72 132H84C87.3137 132 90 129.314 90 126C90 122.686 87.3137 120 84 120H72V132ZM72 132H87C90.3137 132 93 134.686 93 138C93 141.314 90.3137 144 87 144H72V132ZM108 132C108 146.912 95.9117 159 81 159C66.0883 159 54 146.912 54 132C54 117.088 66.0883 105 81 105C95.9117 105 108 117.088 108 132Z" stroke="#E6B300" stroke-width="6" stroke-linecap="round" stroke-linejoin="round"/>
<path d="M104 120H116C119.314 120 122 122.686 122 126C122 129.314 119.314 132 116 132H104V120Z" fill="#FBF4D9"/>
<path d="M104 132H119C122.314 132 125 134.686 125 138C125 141.314 122.314 144 119 144H104V132Z" fill="#FBF4D9"/>
<path d="M140 132C140 146.912 127.912 159 113 159C98.0883 159 86 146.912 86 132C86 117.088 98.0883 105 113 105C127.912 105 140 117.088 140 132Z" fill="#FBF4D9"/>
<path d="M104 132H116C119.314 132 122 129.314 122 126C122 122.686 119.314 120 116 120H104V132ZM104 132H119C122.314 132 125 134.686 125 138C125 141.314 122.314 144 119 144H104V132ZM140 132C140 146.912 127.912 159 113 159C98.0883 159 86 146.912 86 132C86 117.088 98.0883 105 113 105C127.912 105 140 117.088 140 132Z" stroke="#E6B300" stroke-width="6" stroke-linecap="round" stroke-linejoin="round"/>
<path d="M136 120H148C151.314 120 154 122.686 154 126C154 129.314 151.314 132 148 132H136V120Z" fill="#FBF4D9"/>
<path d="M136 132H151C154.314 132 157 134.686 157 138C157 141.314 154.314 144 151 144H136V132Z" fill="#FBF4D9"/>
<path d="M172 132C172 146.912 159.912 159 145 159C130.088 159 118 146.912 118 132C118 117.088 130.088 105 145 105C159.912 105 172 117.088 172 132Z" fill="#FBF4D9"/>
<path d="M136 132H148C151.314 132 154 129.314 154 126C154 122.686 151.314 120 148 120H136V132ZM136 132H151C154.314 132 157 134.686 157 138C157 141.314 154.314 144 151 144H136V132ZM172 132C172 146.912 159.912 159 145 159C130.088 159 118 146.912 118 132C118 117.088 130.088 105 145 105C159.912 105 172 117.088 172 132Z" stroke="#E6B300" stroke-width="6" stroke-linecap="round" stroke-linejoin="round"/>
<path d="M168 120H180C183.314 120 186 122.686 186 126C186 129.314 183.314 132 180 132H168V120Z" fill="#FBF4D9"/>
<path d="M168 132H183C186.314 132 189 134.686 189 138C189 141.314 186.314 144 183 144H168V132Z" fill="#FBF4D9"/>
<path d="M204 132C204 146.912 191.912 159 177 159C162.088 159 150 146.912 150 132C150 117.088 162.088 105 177 105C191.912 105 204 117.088 204 132Z" fill="#FBF4D9"/>
<path d="M168 132H180C183.314 132 186 129.314 186 126C186 122.686 183.314 120 180 120H168V132ZM168 132H183C186.314 132 189 134.686 189 138C189 141.314 186.314 144 183 144H168V132ZM204 132C204 146.912 191.912 159 177 159C162.088 159 150 146.912 150 132C150 117.088 162.088 105 177 105C191.912 105 204 117.088 204 132Z" stroke="#E6B300" stroke-width="6" stroke-linecap="round" stroke-linejoin="round"/>
<path d="M200 120H212C215.314 120 218 122.686 218 126C218 129.314 215.314 132 212 132H200V120Z" fill="#FBF4D9"/>
<path d="M200 132H215C218.314 132 221 134.686 221 138C221 141.314 218.314 144 215 144H200V132Z" fill="#FBF4D9"/>
<path d="M236 132C236 146.912 223.912 159 209 159C194.088 159 182 146.912 182 132C182 117.088 194.088 105 209 105C223.912 105 236 117.088 236 132Z" fill="#FBF4D9"/>
<path d="M200 132H212C215.314 132 218 129.314 218 126C218 122.686 215.314 120 212 120H200V132ZM200 132H215C218.314 132 221 134.686 221 138C221 141.314 218.314 144 215 144H200V132ZM236 132C236 146.912 223.912 159 209 159C194.088 159 182 146.912 182 132C182 117.088 194.088 105 209 105C223.912 105 236 117.088 236 132Z" stroke="#E6B300" stroke-width="6" stroke-linecap="round" stroke-linejoin="round"/>
<path d="M232 120H244C247.314 120 250 122.686 250 126C250 129.314 247.314 132 244 132H232V120Z" fill="#FBF4D9"/>
<path d="M232 132H247C250.314 132 253 134.686 253 138C253 141.314 250.314 144 247 144H232V132Z" fill="#FBF4D9"/>
<path d="M268 132C268 146.912 255.912 159 241 159C226.088 159 214 146.912 214 132C214 117.088 226.088 105 241 105C255.912 105 268 117.088 268 132Z" fill="#FBF4D9"/>
<path d="M232 132H244C247.314 132 250 129.314 250 126C250 122.686 247.314 120 244 120H232V132ZM232 132H247C250.314 132 253 134.686 253 138C253 141.314 250.314 144 247 144H232V132ZM268 132C268 146.912 255.912 159 241 159C226.088 159 214 146.912 214 132C214 117.088 226.088 105 241 105C255.912 105 268 117.088 268 132Z" stroke="#E6B300" stroke-width="6" stroke-linecap="round" stroke-linejoin="round"/>
<path d="M264 120H276C279.314 120 282 122.686 282 126C282 129.314 279.314 132 276 132H264V120Z" fill="#FBF4D9"/>
<path d="M264 132H279C282.314 132 285 134.686 285 138C285 141.314 282.314 144 279 144H264V132Z" fill="#FBF4D9"/>
<path d="M300 132C300 146.912 287.912 159 273 159C258.088 159 246 146.912 246 132C246 117.088 258.088 105 273 105C287.912 105 300 117.088 300 132Z" fill="#FBF4D9"/>
<path d="M264 132H276C279.314 132 282 129.314 282 126C282 122.686 279.314 120 276 120H264V132ZM264 132H279C282.314 132 285 134.686 285 138C285 141.314 282.314 144 279 144H264V132ZM300 132C300 146.912 287.912 159 273 159C258.088 159 246 146.912 246 132C246 117.088 258.088 105 273 105C287.912 105 300 117.088 300 132Z" stroke="#E6B300" stroke-width="6" stroke-linecap="round" stroke-linejoin="round"/>
<path d="M152 152H164C167.314 152 170 154.686 170 158C170 161.314 167.314 164 164 164H152V152Z" fill="#FBF4D9"/>
<path d="M152 164H167C170.314 164 173 166.686 173 170C173 173.314 170.314 176 167 176H152V164Z" fill="#FBF4D9"/>
<path d="M188 164C188 178.912 175.912 191 161 191C146.088 191 134 178.912 134 164C134 149.088 146.088 137 161 137C175.912 137 188 149.088 188 164Z" fill="#FBF4D9"/>
<path d="M152 164H164C167.314 164 170 161.314 170 158C170 154.686 167.314 152 164 152H152V164ZM152 164H167C170.314 164 173 166.686 173 170C173 173.314 170.314 176 167 176H152V164ZM188 164C188 178.912 175.912 191 161 191C146.088 191 134 178.912 134 164C134 149.088 146.088 137 161 137C175.912 137 188 149.088 188 164Z" stroke="#E6B300" stroke-width="6" stroke-linecap="round" stroke-linejoin="round"/>
<path d="M184 152H196C199.314 152 202 154.686 202 158C202 161.314 199.314 164 196 164H184V152Z" fill="#FBF4D9"/>
<path d="M184 164H199C202.314 164 205 166.686 205 170C205 173.314 202.314 176 199 176H184V164Z" fill="#FBF4D9"/>
<path d="M220 164C220 178.912 207.912 191 193 191C178.088 191 166 178.912 166 164C166 149.088 178.088 137 193 137C207.912 137 220 149.088 220 164Z" fill="#FBF4D9"/>
<path d="M184 164H196C199.314 164 202 161.314 202 158C202 154.686 199.314 152 196 152H184V164ZM184 164H199C202.314 164 205 166.686 205 170C205 173.314 202.314 176 199 176H184V164ZM220 164C220 178.912 207.912 191 193 191C178.088 191 166 178.912 166 164C166 149.088 178.088 137 193 137C207.912 137 220 149.088 220 164Z" stroke="#E6B300" stroke-width="6" stroke-linecap="round" stroke-linejoin="round"/>
</svg>
