<svg width="60" height="60" viewBox="0 0 60 60" fill="none" xmlns="http://www.w3.org/2000/svg">
<path d="M21 18H33C36.3137 18 39 20.6863 39 24C39 27.3137 36.3137 30 33 30H21V18Z" fill="#FBF4D9"/>
<path d="M21 30H36C39.3137 30 42 32.6863 42 36C42 39.3137 39.3137 42 36 42H21V30Z" fill="#FBF4D9"/>
<path d="M57 30C57 44.9117 44.9117 57 30 57C15.0883 57 3 44.9117 3 30C3 15.0883 15.0883 3 30 3C44.9117 3 57 15.0883 57 30Z" fill="#FBF4D9"/>
<path d="M21 30H33C36.3137 30 39 27.3137 39 24C39 20.6863 36.3137 18 33 18H21V30ZM21 30H36C39.3137 30 42 32.6863 42 36C42 39.3137 39.3137 42 36 42H21V30ZM57 30C57 44.9117 44.9117 57 30 57C15.0883 57 3 44.9117 3 30C3 15.0883 15.0883 3 30 3C44.9117 3 57 15.0883 57 30Z" stroke="#E6B300" stroke-width="6" stroke-linecap="round" stroke-linejoin="round"/>
</svg>
